<svg width="196" height="109" viewBox="0 0 196 109" fill="none" xmlns="http://www.w3.org/2000/svg">
<path d="M48.7759 35.6043H14.5172C12.8651 35.6043 11.5332 34.266 11.5332 32.6203V12.0074C11.5332 10.3553 12.8715 9.02344 14.5172 9.02344H48.7759C50.428 9.02344 51.7599 10.3617 51.7599 12.0074V32.6203C51.7599 34.266 50.4216 35.6043 48.7759 35.6043Z" fill="#14191D" stroke="#14191D" stroke-miterlimit="10"/>
<path d="M15.2656 26.2144L16.4951 25.3115C16.9049 26.0543 17.4492 26.3745 18.0639 26.3745C19.0053 26.3745 19.4919 25.8622 19.4919 24.4343V17.6914H21.2721V24.5879C21.2721 26.4257 20.3692 27.9242 18.2689 27.9242C16.8665 27.9242 15.906 27.3479 15.2656 26.2144Z" fill="#F5F5F4"/>
<path d="M23.084 26.4502L24.1214 25.2271C24.8385 25.9122 25.8055 26.3733 26.7404 26.3733C27.8738 26.3733 28.4949 25.861 28.4949 25.0734C28.4949 24.2473 27.8482 23.9848 26.9325 23.5942L25.5557 22.9987C24.5632 22.5888 23.5258 21.8012 23.5258 20.3348C23.5258 18.7339 24.941 17.498 26.9005 17.498C28.0723 17.498 29.2121 17.9847 29.9998 18.7787L29.0841 19.9122C28.4437 19.3679 27.7649 19.0477 26.9005 19.0477C25.9463 19.0477 25.3252 19.4959 25.3252 20.2259C25.3252 21.0136 26.0936 21.3081 26.9261 21.6475L28.2836 22.2174C29.4811 22.7169 30.3135 23.4725 30.3135 24.9261C30.3135 26.5526 28.9624 27.9165 26.702 27.9165C25.3444 27.9229 24.0381 27.3915 23.084 26.4502Z" fill="#F5F5F4"/>
<path d="M11.5273 12.4688H51.7605" stroke="#F5F5F4" stroke-miterlimit="10"/>
<path d="M187.558 108.041H10.2068C6.29425 108.041 4.37961 103.27 7.20995 100.568L36.4419 72.6484H161.31L190.542 100.568C193.379 103.27 191.464 108.041 187.558 108.041Z" fill="#F5F5F4" stroke="#14191D" stroke-miterlimit="10"/>
<path d="M151.578 1H46.4771C40.9381 1 36.4492 5.48887 36.4492 11.0279V72.6487H161.605V11.0279C161.605 5.49527 157.117 1 151.578 1Z" fill="#F5F5F4" stroke="#14191D" stroke-miterlimit="10"/>
<path d="M51.2805 77.9497H38.6016L40.5226 76.2656H53.8419L51.2805 77.9497Z" fill="#14191D" stroke="#14191D" stroke-miterlimit="10"/>
<path d="M67.1527 77.9497H53.8398L56.4012 76.2656H69.0737L67.1527 77.9497Z" fill="#14191D" stroke="#14191D" stroke-miterlimit="10"/>
<path d="M83.0341 77.9497H69.7148L71.6359 76.2656H84.3148L83.0341 77.9497Z" fill="#14191D" stroke="#14191D" stroke-miterlimit="10"/>
<path d="M97.6278 77.9497H85.5957L86.8764 76.2656H98.2682L97.6278 77.9497Z" fill="#14191D" stroke="#14191D" stroke-miterlimit="10"/>
<path d="M112.868 77.9497H100.189L100.83 76.2656H112.868V77.9497Z" fill="#14191D" stroke="#14191D" stroke-miterlimit="10"/>
<path d="M127.466 77.9497H115.428V76.2656H126.186L127.466 77.9497Z" fill="#14191D" stroke="#14191D" stroke-miterlimit="10"/>
<path d="M143.982 77.9497H130.029L128.748 76.2656H141.421L143.982 77.9497Z" fill="#14191D" stroke="#14191D" stroke-miterlimit="10"/>
<path d="M159.223 77.9497H146.544L143.982 76.2656H156.661L159.223 77.9497Z" fill="#14191D" stroke="#14191D" stroke-miterlimit="10"/>
<path d="M42.8966 80.9224H34.873L36.7301 79.2383H45.157L42.8966 80.9224Z" fill="#14191D" stroke="#14191D" stroke-miterlimit="10"/>
<path d="M53.1754 80.9224H45.1582L47.6492 79.2383H55.4358L53.1754 80.9224Z" fill="#14191D" stroke="#14191D" stroke-miterlimit="10"/>
<path d="M63.4527 80.9224H55.4355L57.9329 79.2383H65.7131L63.4527 80.9224Z" fill="#14191D" stroke="#14191D" stroke-miterlimit="10"/>
<path d="M73.7367 80.9224H66.3535L68.2105 79.2383H75.3568L73.7367 80.9224Z" fill="#14191D" stroke="#14191D" stroke-miterlimit="10"/>
<path d="M82.7326 80.9224H75.9961L77.8467 79.2383H84.3527L82.7326 80.9224Z" fill="#14191D" stroke="#14191D" stroke-miterlimit="10"/>
<path d="M91.7306 80.9224H84.9941L86.8511 79.2383H92.7103L91.7306 80.9224Z" fill="#14191D" stroke="#14191D" stroke-miterlimit="10"/>
<path d="M100.735 80.9224H93.3516L94.5682 79.2383H101.074L100.735 80.9224Z" fill="#14191D" stroke="#14191D" stroke-miterlimit="10"/>
<path d="M110.371 80.9224H102.354L102.923 79.2383H110.07L110.371 80.9224Z" fill="#14191D" stroke="#14191D" stroke-miterlimit="10"/>
<path d="M118.728 80.9224H111.992L111.928 79.2383H117.787L118.728 80.9224Z" fill="#14191D" stroke="#14191D" stroke-miterlimit="10"/>
<path d="M128.364 80.9224H120.347L119.643 79.2383H126.789L128.364 80.9224Z" fill="#14191D" stroke="#14191D" stroke-miterlimit="10"/>
<path d="M136.728 80.9224H129.992L128.641 79.2383H135.147L136.728 80.9224Z" fill="#14191D" stroke="#14191D" stroke-miterlimit="10"/>
<path d="M146.366 80.9224H138.349L137.004 79.2383H144.144L146.366 80.9224Z" fill="#14191D" stroke="#14191D" stroke-miterlimit="10"/>
<path d="M162.95 80.9224H148.715L146.641 79.2383H160.402L162.95 80.9224Z" fill="#14191D" stroke="#14191D" stroke-miterlimit="10"/>
<path d="M39.6636 83.8847H31.6465L33.5035 82.207H41.9241L39.6636 83.8847Z" fill="#14191D" stroke="#14191D" stroke-miterlimit="10"/>
<path d="M49.941 83.8847H41.9238L44.4212 82.207H52.2014L49.941 83.8847Z" fill="#14191D" stroke="#14191D" stroke-miterlimit="10"/>
<path d="M60.8671 83.8847H52.2031L54.7005 82.207H62.4871L60.8671 83.8847Z" fill="#14191D" stroke="#14191D" stroke-miterlimit="10"/>
<path d="M70.5038 83.8847H63.127L64.984 82.207H72.1238L70.5038 83.8847Z" fill="#14191D" stroke="#14191D" stroke-miterlimit="10"/>
<path d="M79.5001 83.8847H72.7637L74.6207 82.207H81.1202L79.5001 83.8847Z" fill="#14191D" stroke="#14191D" stroke-miterlimit="10"/>
<path d="M88.5026 83.8847H81.7598L83.6168 82.207H89.4824L88.5026 83.8847Z" fill="#14191D" stroke="#14191D" stroke-miterlimit="10"/>
<path d="M97.4999 83.8847H90.123L91.3333 82.207H97.8392L97.4999 83.8847Z" fill="#14191D" stroke="#14191D" stroke-miterlimit="10"/>
<path d="M107.138 83.8847H99.1211L99.6974 82.207H107.478L107.138 83.8847Z" fill="#14191D" stroke="#14191D" stroke-miterlimit="10"/>
<path d="M124.463 83.8847H117.72L117.016 82.207H123.522L124.463 83.8847Z" fill="#14191D" stroke="#14191D" stroke-miterlimit="10"/>
<path d="M115.803 83.8847H109.066L109.636 82.207H114.862L115.803 83.8847Z" fill="#14191D" stroke="#14191D" stroke-miterlimit="10"/>
<path d="M134.103 83.8847H126.726L125.375 82.207H132.521L134.103 83.8847Z" fill="#14191D" stroke="#14191D" stroke-miterlimit="10"/>
<path d="M143.737 83.8847H136.36L135.016 82.207H141.515L143.737 83.8847Z" fill="#14191D" stroke="#14191D" stroke-miterlimit="10"/>
<path d="M153.384 83.8847H146.001L144.016 82.207H151.162L153.384 83.8847Z" fill="#14191D" stroke="#14191D" stroke-miterlimit="10"/>
<path d="M166.119 83.8847H155.707L153.383 82.207H163.603L166.119 83.8847Z" fill="#14191D" stroke="#14191D" stroke-miterlimit="10"/>
<path d="M36.7501 86.8579H28.7266L30.5836 85.1738H39.0106L36.7501 86.8579Z" fill="#14191D" stroke="#14191D" stroke-miterlimit="10"/>
<path d="M47.0269 86.8579H39.0098L41.5071 85.1738H49.2874L47.0269 86.8579Z" fill="#14191D" stroke="#14191D" stroke-miterlimit="10"/>
<path d="M57.9446 86.8579H49.2871L51.7845 85.1738H59.5647L57.9446 86.8579Z" fill="#14191D" stroke="#14191D" stroke-miterlimit="10"/>
<path d="M67.5883 86.8579H60.2051L62.0621 85.1738H69.2084L67.5883 86.8579Z" fill="#14191D" stroke="#14191D" stroke-miterlimit="10"/>
<path d="M76.5861 86.8579H69.8496L71.7002 85.1738H78.2062L76.5861 86.8579Z" fill="#14191D" stroke="#14191D" stroke-miterlimit="10"/>
<path d="M85.5822 86.8579H78.8457L80.7027 85.1738H86.5619L85.5822 86.8579Z" fill="#14191D" stroke="#14191D" stroke-miterlimit="10"/>
<path d="M94.5844 86.8579H87.2012L88.4179 85.1738H94.9238L94.5844 86.8579Z" fill="#14191D" stroke="#14191D" stroke-miterlimit="10"/>
<path d="M104.224 86.8579H96.207L96.7769 85.1738H104.564L104.224 86.8579Z" fill="#14191D" stroke="#14191D" stroke-miterlimit="10"/>
<path d="M131.152 86.8579H123.775L123.07 85.1738H129.57L131.152 86.8579Z" fill="#14191D" stroke="#14191D" stroke-miterlimit="10"/>
<path d="M121.763 86.8579H115.027L114.322 85.1738H120.822L121.763 86.8579Z" fill="#14191D" stroke="#14191D" stroke-miterlimit="10"/>
<path d="M113.042 86.8579H106.299L106.875 85.1738H112.1L113.042 86.8579Z" fill="#14191D" stroke="#14191D" stroke-miterlimit="10"/>
<path d="M140.154 86.8579H132.77L131.426 85.1738H138.572L140.154 86.8579Z" fill="#14191D" stroke="#14191D" stroke-miterlimit="10"/>
<path d="M148.511 86.8579H141.775L140.424 85.1738H146.289L148.511 86.8579Z" fill="#14191D" stroke="#14191D" stroke-miterlimit="10"/>
<path d="M158.147 86.8579H150.77L148.785 85.1738H155.925L158.147 86.8579Z" fill="#14191D" stroke="#14191D" stroke-miterlimit="10"/>
<path d="M169.609 86.8579H160.177L158.166 85.1738H167.278L169.609 86.8579Z" fill="#14191D" stroke="#14191D" stroke-miterlimit="10"/>
<path d="M33.4918 89.8286H25.4746L27.3316 88.1445H35.7522L33.4918 89.8286Z" fill="#14191D" stroke="#14191D" stroke-miterlimit="10"/>
<path d="M43.7736 89.8286H35.75L38.2474 88.1445H46.034L43.7736 89.8286Z" fill="#14191D" stroke="#14191D" stroke-miterlimit="10"/>
<path d="M54.6927 89.8286H46.0352L48.5261 88.1445H56.3128L54.6927 89.8286Z" fill="#14191D" stroke="#14191D" stroke-miterlimit="10"/>
<path d="M64.3319 89.8286H56.9551L58.8121 88.1445H65.952L64.3319 89.8286Z" fill="#14191D" stroke="#14191D" stroke-miterlimit="10"/>
<path d="M120.418 89.8286H66.5898L68.5237 88.1445H119.527L120.418 89.8286Z" fill="#14191D" stroke="#14191D" stroke-miterlimit="10"/>
<path d="M129.176 89.8286H122.439L121.729 88.1445H128.234L129.176 89.8286Z" fill="#14191D" stroke="#14191D" stroke-miterlimit="10"/>
<path d="M138.813 89.8286H130.796L130.092 88.1445H137.232L138.813 89.8286Z" fill="#14191D" stroke="#14191D" stroke-miterlimit="10"/>
<path d="M147.171 89.8286H140.435L139.09 88.1445H145.596L147.171 89.8286Z" fill="#14191D" stroke="#14191D" stroke-miterlimit="10"/>
<path d="M156.814 89.8286H148.796L147.445 88.1445H154.592L156.814 89.8286Z" fill="#14191D" stroke="#14191D" stroke-miterlimit="10"/>
<path d="M173.393 89.8286H159.158L157.09 88.1445H170.851L173.393 89.8286Z" fill="#14191D" stroke="#14191D" stroke-miterlimit="10"/>
<path d="M128.806 100.426H66.9805L74.0243 92.498H122.403L128.806 100.426Z" fill="#F5F5F4" stroke="#14191D" stroke-miterlimit="10"/>
<path d="M151.603 12.8145H45.1582V62.2046H151.603V12.8145Z" fill="#14191D" stroke="#14191D" stroke-miterlimit="10"/>
<path d="M107.834 57.1894L89.9238 57.1766C89.213 57.1766 88.6367 56.6003 88.6367 55.8895V54.2246C88.6367 53.5138 89.213 52.9375 89.9238 52.9375L107.834 52.9503C108.545 52.9503 109.121 53.5266 109.121 54.2374V55.9023C109.121 56.6131 108.545 57.1894 107.834 57.1894Z" fill="#F5F5F4" stroke="#F5F5F4" stroke-miterlimit="10"/>
<path d="M108.514 40.9375H88.5352V41.7379H108.514V40.9375Z" stroke="#F5F5F4" stroke-miterlimit="10"/>
<path d="M108.559 43.4121H88.5352V44.219H108.559V43.4121Z" stroke="#F5F5F4" stroke-miterlimit="10"/>
<path d="M103.494 46.0684H88.5352V46.8816H103.494V46.0684Z" stroke="#F5F5F4" stroke-miterlimit="10"/>
<path d="M114.586 31.1816H88.543V31.9821H114.586V31.1816Z" stroke="#F5F5F4" stroke-miterlimit="10"/>
<path d="M114.604 34.2031H88.5352V35.0164H114.604V34.2031Z" stroke="#F5F5F4" stroke-miterlimit="10"/>
<path d="M103.494 37.1094H88.5352V37.9226H103.494V37.1094Z" stroke="#F5F5F4" stroke-miterlimit="10"/>
<path d="M127.66 25.4097L62.4023 25.3328V24.5645L127.66 24.6477V25.4097Z" stroke="#F5F5F4" stroke-miterlimit="10"/>
<path d="M144.572 19.6226L62.4023 19.5586L62.4087 18.7773L144.572 18.8414V19.6226Z" stroke="#F5F5F4" stroke-miterlimit="10"/>
<path d="M62.4013 21.6604L62.4004 22.416L144.57 22.5162L144.571 21.7606L62.4013 21.6604Z" stroke="#F5F5F4" stroke-miterlimit="10"/>
<path d="M175.857 43.3319L176.088 39.4258" stroke="#14191D" stroke-miterlimit="10" stroke-linecap="round"/>
<path d="M175.845 43.3764L174.129 39.7969" stroke="#14191D" stroke-miterlimit="10" stroke-linecap="round"/>
<path d="M6.99367 93.1614C6.99367 93.1614 13.4548 86.2137 29.4827 73.7012C45.5107 61.1824 84.8601 59.6392 85.2379 51.7757C85.462 47.0691 60.021 52.9091 62.8449 52.1343C71.2591 43.8354 91.667 24.119 86.4674 19.3356C82.9903 16.1338 54.2578 49.9443 60.1682 42.9581C66.0787 35.9719 68.9794 31.7392 65.2526 29.4659C62.2109 27.6025 53.7904 38.7318 54.4819 37.7905C63.3444 26.5459 61.4361 25.0667 58.3881 23.6067C55.5513 22.2492 45.3762 34.8641 47.2524 32.4436C49.1286 30.023 58.0807 21.2887 51.3314 19.3484C49.3591 18.7849 32.8894 34.2493 26.3642 44.6486C19.1347 56.1749 1 68.6361 1 68.6361" fill="#F5F5F4"/>
<path d="M6.99367 93.1614C6.99367 93.1614 13.4548 86.2137 29.4827 73.7012C45.5107 61.1824 84.8601 59.6392 85.2379 51.7757C85.462 47.0691 60.021 52.9091 62.8449 52.1343C71.2591 43.8354 91.667 24.119 86.4674 19.3356C82.9903 16.1338 54.2578 49.9443 60.1682 42.9581C66.0787 35.9719 68.9794 31.7392 65.2526 29.4659C62.2109 27.6025 53.7904 38.7318 54.4819 37.7905C63.3444 26.5459 61.4361 25.0667 58.3881 23.6067C55.5513 22.2492 45.3762 34.8641 47.2524 32.4436C49.1286 30.023 58.0807 21.2887 51.3314 19.3484C49.3591 18.7849 32.8894 34.2493 26.3642 44.6486C19.1347 56.1749 1 68.6361 1 68.6361" stroke="#14191D" stroke-miterlimit="10"/>
<path d="M175.053 39.3516C175.053 39.3516 172.997 25.9363 164.756 18.9629" stroke="#14191D" stroke-miterlimit="10" stroke-linecap="round" stroke-dasharray="3 3"/>
<path d="M144.571 31.166H119.643V46.8353H144.571V31.166Z" fill="#F5F5F4" stroke="#F5F5F4" stroke-miterlimit="10"/>
<path d="M192.015 69.0435H157.321C155.791 69.0435 154.555 67.8013 154.555 66.2772V48.9558C154.555 47.4253 155.797 46.1895 157.321 46.1895H192.015C193.546 46.1895 194.781 47.4317 194.781 48.9558V66.2772C194.781 67.8077 193.546 69.0435 192.015 69.0435Z" fill="#F5F5F4" stroke="#14191D" stroke-miterlimit="10"/>
<path d="M161.428 59.1131V57.8196L168.267 55.1621V56.6477L165.295 57.6851L163.227 58.4279V58.4919L165.295 59.2348L168.267 60.2721V61.7577L161.428 59.1131Z" fill="#14191D"/>
<path d="M175.631 52.6523H176.829L173.237 66.0228H172.039L175.631 52.6523Z" fill="#14191D"/>
<path d="M180.748 60.278L183.719 59.2406L185.788 58.4978V58.4338L183.719 57.6909L180.748 56.6536V55.168L187.587 57.8254V59.1189L180.748 61.7764V60.278Z" fill="#14191D"/>
<path d="M122.793 33.1895V44.863" stroke="#14191D" stroke-miterlimit="10"/>
<path d="M122.627 44.8516H141.594" stroke="#14191D" stroke-miterlimit="10"/>
<path d="M122.795 32.7812L122.123 35.1121" stroke="#14191D" stroke-miterlimit="10" stroke-linecap="round"/>
<path d="M122.793 32.7812L123.491 35.1121" stroke="#14191D" stroke-miterlimit="10" stroke-linecap="round"/>
<path d="M142.095 44.8387L140.053 44.0703" stroke="#14191D" stroke-miterlimit="10" stroke-linecap="round"/>
<path d="M142.095 44.8398L140.053 45.6275" stroke="#14191D" stroke-miterlimit="10" stroke-linecap="round"/>
<path d="M122.793 44.8655C123.792 43.2262 126.02 38.3723 127.006 38.4236C127.999 38.4812 128.095 39.6915 128.678 40.684C129.26 41.6765 131.073 38.0009 132.11 35.8302C134.556 30.6882 134.729 39.2624 134.972 40.2166C135.76 43.2518 141.069 37.9945 141.069 37.9945" stroke="#14191D" stroke-miterlimit="10" stroke-linecap="round"/>
<path d="M154.547 49.6465H194.78" stroke="#14191D" stroke-miterlimit="10"/>
</svg>
