<svg width="210" height="118" viewBox="0 0 210 118" fill="none" xmlns="http://www.w3.org/2000/svg">
<path d="M14.7069 85.5837C14.7069 85.5837 -3.76427 67.9723 15.607 49.1317C28.8995 36.2085 58.2586 48.0234 58.2586 48.0234" stroke="#14191D" stroke-miterlimit="10" stroke-dasharray="3 3"/>
<path d="M42.5762 5.74102C42.6635 2.79906 42.7239 14.6676 46.8816 17.0252C47.0563 17.126 47.063 17.3946 46.8951 17.5021C42.8448 19.994 42.5829 28.6856 42.5829 28.6856" stroke="#14191D" stroke-miterlimit="10"/>
<path d="M42.5752 28.2228C42.4879 31.158 42.2595 20.0954 38.2765 17.0326C38.0884 16.8848 38.1086 16.5691 38.3101 16.4482C42.2864 14.1041 42.5752 5.27148 42.5752 5.27148" stroke="#14191D" stroke-miterlimit="10"/>
<path d="M31.2227 7.44959C31.2697 5.91816 31.3033 12.0909 33.5332 13.3201C33.6273 13.3738 33.6273 13.5149 33.54 13.5686C31.3704 14.8649 31.2294 19.3853 31.2294 19.3853" fill="#14191D"/>
<path d="M31.2227 7.44959C31.2697 5.91816 31.3033 12.0909 33.5332 13.3201C33.6273 13.3738 33.6273 13.5149 33.54 13.5686C31.3704 14.8649 31.2294 19.3853 31.2294 19.3853" stroke="#14191D" stroke-miterlimit="10"/>
<path d="M31.2239 19.138C31.1769 20.6627 31.056 14.9131 28.9201 13.3213C28.8193 13.2474 28.8327 13.0795 28.9402 13.019C31.0762 11.8033 31.2239 7.20898 31.2239 7.20898" fill="#14191D"/>
<path d="M31.2239 19.138C31.1769 20.6627 31.056 14.9131 28.9201 13.3213C28.8193 13.2474 28.8327 13.0795 28.9402 13.019C31.0762 11.8033 31.2239 7.20898 31.2239 7.20898" stroke="#14191D" stroke-miterlimit="10"/>
<path d="M35.373 25.1742C35.4268 23.6428 35.4537 29.8155 37.7709 31.0447C37.865 31.0984 37.8717 31.2394 37.7777 31.2932C35.5208 32.5895 35.373 37.1099 35.373 37.1099" stroke="#14191D" stroke-miterlimit="10"/>
<path d="M35.3738 36.8626C35.3267 38.3873 35.1991 32.6377 32.9759 31.0459C32.8684 30.972 32.8818 30.8041 32.996 30.7436C35.2126 29.5279 35.3738 24.9336 35.3738 24.9336" stroke="#14191D" stroke-miterlimit="10"/>
<path d="M52.7915 91.8247L9.47496 109.073C7.93681 109.685 6.19045 108.932 5.57923 107.394L0.212516 93.9136C-0.398712 92.3755 0.353569 90.6291 1.89171 90.0179L45.2083 72.7692C46.7464 72.1579 48.4928 72.9102 49.104 74.4484L54.4707 87.929C55.082 89.4671 54.3297 91.2135 52.7915 91.8247Z" fill="#14191D"/>
<path d="M0.728516 95.2102L49.6133 75.7383" stroke="#F5F5F4" stroke-miterlimit="10"/>
<path d="M44.6443 76.2691C45.0153 76.2691 45.316 75.9684 45.316 75.5975C45.316 75.2265 45.0153 74.9258 44.6443 74.9258C44.2734 74.9258 43.9727 75.2265 43.9727 75.5975C43.9727 75.9684 44.2734 76.2691 44.6443 76.2691Z" fill="#F5F5F4"/>
<path d="M41.6229 77.4703C41.9938 77.4703 42.2945 77.1696 42.2945 76.7986C42.2945 76.4277 41.9938 76.127 41.6229 76.127C41.2519 76.127 40.9512 76.4277 40.9512 76.7986C40.9512 77.1696 41.2519 77.4703 41.6229 77.4703Z" fill="#F5F5F4"/>
<path d="M38.6072 78.6734C38.9782 78.6734 39.2789 78.3727 39.2789 78.0018C39.2789 77.6308 38.9782 77.3301 38.6072 77.3301C38.2363 77.3301 37.9355 77.6308 37.9355 78.0018C37.9355 78.3727 38.2363 78.6734 38.6072 78.6734Z" fill="#F5F5F4"/>
<path d="M13.7812 100.875L14.2783 100.083C14.6813 100.412 15.0642 100.472 15.4134 100.331C15.9508 100.116 16.112 99.7199 15.7828 98.9004L14.2581 95.0651L15.2724 94.6621L16.8374 98.5847C17.2538 99.6325 17.0792 100.687 15.8836 101.164C15.0843 101.486 14.4059 101.372 13.7812 100.875Z" fill="#F5F5F4"/>
<path d="M17.9383 97.3207L16.6621 94.1101L17.6764 93.7071L18.9861 96.9916C19.4832 98.2342 20.1078 98.4626 20.7996 98.1872C21.4982 97.9118 21.8206 97.3073 21.3236 96.0647L20.0138 92.7802L20.9877 92.3906L22.2639 95.6012C23.0095 97.482 22.4721 98.5432 21.1489 99.0738C19.8257 99.5977 18.6906 99.2014 17.9383 97.3207Z" fill="#F5F5F4"/>
<path d="M22.4121 91.8194L23.4532 91.4029L26.5093 93.9083L27.584 94.8956L27.6176 94.8822C27.3355 94.3113 26.9661 93.6194 26.7109 92.9813L25.7235 90.4961L26.6907 90.1133L28.9677 95.8293L27.9266 96.2457L24.8704 93.7336L23.7958 92.753L23.7622 92.7664C24.051 93.3508 24.407 94.009 24.6622 94.6471L25.6563 97.1525L24.6891 97.5353L22.4121 91.8194Z" fill="#F5F5F4"/>
<path d="M28.1426 89.5378L29.1568 89.1348L31.4338 94.8507L30.4196 95.2538L28.1426 89.5378Z" fill="#F5F5F4"/>
<path d="M31.4375 91.5109C30.6986 89.6638 31.2964 88.1593 32.7875 87.5682C34.2787 86.9771 35.7429 87.6622 36.4818 89.5026C37.2206 91.3497 36.6362 92.9013 35.1518 93.4924C33.654 94.0902 32.1696 93.3648 31.4375 91.5109ZM35.434 89.9191C34.9235 88.6361 34.0368 88.0921 33.1368 88.4481C32.2367 88.8041 31.9681 89.8116 32.4786 91.0945C32.989 92.3774 33.8958 92.9685 34.7959 92.6125C35.6892 92.2565 35.9444 91.202 35.434 89.9191Z" fill="#F5F5F4"/>
<path d="M36.498 86.2111L38.4258 85.4453C39.6147 84.9752 40.696 85.0289 41.2065 86.3051C41.6968 87.5343 41.005 88.4545 39.8161 88.9314L38.9027 89.2941L39.7893 91.5307L38.775 91.9338L36.498 86.2111ZM39.3796 88.1589C40.1654 87.85 40.461 87.3529 40.199 86.7014C39.9371 86.0431 39.4199 85.9894 38.634 86.2984L37.828 86.6208L38.5668 88.4813L39.3796 88.1589ZM39.5139 88.7366L40.011 87.8365L43.0335 90.2344L41.8916 90.6911L39.5139 88.7366Z" fill="#F5F5F4"/>
<path d="M164.049 37.969L167.441 34.127" stroke="#14191D" stroke-miterlimit="10" stroke-linecap="round"/>
<path d="M163.994 38.0022L165.203 32.8438" stroke="#14191D" stroke-miterlimit="10" stroke-linecap="round"/>
<path d="M108.264 116.797H65.6463C61.5625 116.797 58.2578 113.486 58.2578 109.409V8.38847C58.2578 4.30466 61.5692 1 65.6463 1H108.264C112.348 1 115.653 4.31138 115.653 8.38847V109.402C115.66 113.493 112.348 116.797 108.264 116.797Z" fill="#F5F5F4" stroke="#14191D" stroke-miterlimit="10"/>
<path d="M76.3867 114.07H97.5312" stroke="#14191D" stroke-miterlimit="10"/>
<path d="M99.4266 5.41293H75.1052C73.7887 5.41293 72.7207 4.34496 72.7207 3.02847V1H101.811V3.02847C101.811 4.34496 100.743 5.41293 99.4266 5.41293Z" fill="#14191D" stroke="#14191D" stroke-miterlimit="10"/>
<path d="M86.9597 65.6208C89.7345 65.6208 91.9839 62.8812 91.9839 59.5018C91.9839 56.1224 89.7345 53.3828 86.9597 53.3828C84.1849 53.3828 81.9355 56.1224 81.9355 59.5018C81.9355 62.8812 84.1849 65.6208 86.9597 65.6208Z" stroke="#14191D" stroke-miterlimit="10"/>
<path d="M81.633 83.584H64.4648V84.5512H81.633V83.584Z" fill="#F5F5F4" stroke="#14191D" stroke-miterlimit="10"/>
<path d="M74.6811 93.1484H64.4648V94.1157H74.6811V93.1484Z" fill="#F5F5F4" stroke="#14191D" stroke-miterlimit="10"/>
<path d="M87.2026 93.1484H76.9863V94.1157H87.2026V93.1484Z" fill="#F5F5F4" stroke="#14191D" stroke-miterlimit="10"/>
<path d="M109.924 93.1484H89.8809V94.1157H109.924V93.1484Z" fill="#F5F5F4" stroke="#14191D" stroke-miterlimit="10"/>
<path d="M109.924 86.7656H64.4648V87.7328H109.924V86.7656Z" fill="#F5F5F4" stroke="#14191D" stroke-miterlimit="10"/>
<path d="M109.924 89.957H64.4648V90.9243H109.924V89.957Z" fill="#F5F5F4" stroke="#14191D" stroke-miterlimit="10"/>
<path d="M108.374 102.053H66.031C65.1712 102.053 64.4727 102.751 64.4727 103.611V106.761C64.4727 107.621 65.1712 108.319 66.031 108.319H108.374C109.233 108.319 109.932 107.621 109.932 106.761V103.611C109.925 102.751 109.233 102.053 108.374 102.053Z" fill="#14191D" stroke="#14191D" stroke-miterlimit="10"/>
<path d="M109.932 83.584H84.1797V84.5512H109.932V83.584Z" fill="#F5F5F4" stroke="#14191D" stroke-miterlimit="10"/>
<path d="M81.633 96.6621H64.4648V97.6293H81.633V96.6621Z" fill="#F5F5F4" stroke="#14191D" stroke-miterlimit="10"/>
<path d="M109.932 96.6621H84.1797V97.6293H109.932V96.6621Z" fill="#F5F5F4" stroke="#14191D" stroke-miterlimit="10"/>
<path d="M109.662 11.0332H64.4648V79.8131H109.662V11.0332Z" stroke="#14191D" stroke-miterlimit="10"/>
<path d="M64.4648 45.4258H109.662" stroke="#14191D" stroke-miterlimit="10"/>
<path d="M75.2188 45.2086C75.2188 45.2086 79.0205 31.8086 87.5709 31.8086C94.9057 31.8086 98.9156 45.2086 98.9156 45.2086H75.2188Z" stroke="#14191D" stroke-miterlimit="10"/>
<path d="M87.0672 31.2321C89.8419 31.2321 92.0913 28.4926 92.0913 25.1131C92.0913 21.7337 89.8419 18.9941 87.0672 18.9941C84.2924 18.9941 82.043 21.7337 82.043 25.1131C82.043 28.4926 84.2924 31.2321 87.0672 31.2321Z" stroke="#14191D" stroke-miterlimit="10"/>
<path d="M88.8002 20.1769C87.7457 19.4716 86.3754 19.4783 85.3343 20.2037C83.8835 21.218 82.0565 22.6688 82.1506 23.8375C82.8424 32.5895 83.991 33.1335 79.0541 36.8614C78.8594 34.4971 77.8048 17.7051 86.9598 17.7051C96.2491 17.7051 95.6379 35.0075 95.5371 36.9554C95.5237 36.9621 95.5237 36.9621 95.5103 36.9621L92.7094 34.4299C91.0772 32.8716 91.8832 23.4076 91.8765 23.4009C91.2115 21.9434 89.9085 20.9224 88.8002 20.1769Z" fill="#14191D" stroke="#14191D" stroke-miterlimit="10"/>
<path d="M84.6836 27.5508C85.2411 28.3837 88.23 29.4651 89.6137 27.5508" stroke="#14191D" stroke-miterlimit="10" stroke-linecap="round"/>
<path d="M85.4342 24.6962C85.4454 24.6962 85.4544 24.5097 85.4544 24.2797C85.4544 24.0497 85.4454 23.8633 85.4342 23.8633C85.4231 23.8633 85.4141 24.0497 85.4141 24.2797C85.4141 24.5097 85.4231 24.6962 85.4342 24.6962Z" stroke="#14191D" stroke-miterlimit="10" stroke-linecap="round"/>
<path d="M88.5983 24.6962C88.6094 24.6962 88.6184 24.5097 88.6184 24.2797C88.6184 24.0497 88.6094 23.8633 88.5983 23.8633C88.5871 23.8633 88.5781 24.0497 88.5781 24.2797C88.5781 24.5097 88.5871 24.6962 88.5983 24.6962Z" stroke="#14191D" stroke-miterlimit="10" stroke-linecap="round"/>
<path d="M64.3652 79.8145H109.556" stroke="#14191D" stroke-miterlimit="10"/>
<path d="M75.1113 79.5992C75.1113 79.5992 78.913 66.1992 87.4635 66.1992C94.7982 66.1992 98.8081 79.5992 98.8081 79.5992H75.1113Z" stroke="#14191D" stroke-miterlimit="10"/>
<path d="M91.7689 57.7976C92.2189 59.3424 89.8009 55.3124 88.6859 54.5735C87.6313 53.8683 86.2611 53.875 85.22 54.6004C83.7692 55.6146 83.0841 57.7035 82.0363 58.2342C81.3377 58.5902 81.2437 52.0614 87.0604 52.1017C92.8772 52.1353 91.7152 57.6095 91.7689 57.7976Z" fill="#14191D" stroke="#14191D" stroke-miterlimit="10"/>
<path d="M84.5762 61.9473C85.1337 62.7801 88.1227 63.8616 89.5063 61.9473" stroke="#14191D" stroke-miterlimit="10" stroke-linecap="round"/>
<path d="M85.3268 59.0868C85.3379 59.0868 85.3469 58.9003 85.3469 58.6703C85.3469 58.4403 85.3379 58.2539 85.3268 58.2539C85.3156 58.2539 85.3066 58.4403 85.3066 58.6703C85.3066 58.9003 85.3156 59.0868 85.3268 59.0868Z" stroke="#14191D" stroke-miterlimit="10" stroke-linecap="round"/>
<path d="M88.4928 59.0868C88.504 59.0868 88.513 58.9003 88.513 58.6703C88.513 58.4403 88.504 58.2539 88.4928 58.2539C88.4817 58.2539 88.4727 58.4403 88.4727 58.6703C88.4727 58.9003 88.4817 59.0868 88.4928 59.0868Z" stroke="#14191D" stroke-miterlimit="10" stroke-linecap="round"/>
<path d="M86.959 49.9922L87.0665 52.1013" stroke="#14191D" stroke-miterlimit="10" stroke-linecap="round"/>
<path d="M84.8848 50.3945L87.0677 52.1006" stroke="#14191D" stroke-miterlimit="10" stroke-linecap="round"/>
<path d="M89.0008 50.4141L87.0664 52.1" stroke="#14191D" stroke-miterlimit="10" stroke-linecap="round"/>
<path d="M120.396 87.6536C146.787 45.049 146.075 -5.02471 153.544 7.36777C161.013 19.7602 153.544 46.1035 153.544 46.1035C153.544 46.1035 164.875 49.6365 158.084 63.0164" stroke="#14191D" stroke-miterlimit="10" stroke-linecap="square"/>
<path d="M153.543 46.1044C153.543 46.1044 211.26 43.955 209.225 55.9647C207.19 67.9743 173.492 70.9767 170.986 66.4227C168.481 61.862 173.062 57.2006 188.39 56.7371" stroke="#14191D" stroke-miterlimit="10" stroke-linecap="square"/>
<path d="M206.505 61.7656C208.856 67.7301 206.801 80.9488 172.72 79.1823C155.679 79.3435 165.647 65.9905 173.922 67.9249" stroke="#14191D" stroke-miterlimit="10" stroke-linecap="square"/>
<path d="M204.906 72.7832C207.19 82.9591 193.783 91.2611 170.986 87.6542C157.761 85.4645 168.75 79.5134 170.482 79.3522" stroke="#14191D" stroke-miterlimit="10" stroke-linecap="square"/>
<path d="M202.79 82.3672C203.166 85.9808 201.406 96.8889 178.086 95.0821C164.706 93.2752 175.372 88.5198 175.372 88.5198" stroke="#14191D" stroke-miterlimit="10" stroke-linecap="square"/>
<path d="M179.237 95.3364C164.131 97.0693 165.615 95.0879 160.417 95.3364C155.218 95.5849 143.826 113.66 143.826 113.66" stroke="#14191D" stroke-miterlimit="10" stroke-linecap="round"/>
<path d="M191.969 50.979L148.653 68.2277C147.115 68.8389 145.368 68.0867 144.757 66.5485L139.39 53.0679C138.779 51.5298 139.531 49.7834 141.069 49.1722L184.386 31.9235C185.924 31.3122 187.671 32.0645 188.282 33.6027L193.649 47.0833C194.26 48.6214 193.507 50.3678 191.969 50.979Z" fill="#14191D"/>
<path d="M139.902 54.3578L188.794 34.8926" stroke="#F5F5F4" stroke-miterlimit="10"/>
<path d="M183.816 35.4254C184.187 35.4254 184.488 35.1247 184.488 34.7537C184.488 34.3828 184.187 34.082 183.816 34.082C183.445 34.082 183.145 34.3828 183.145 34.7537C183.145 35.1247 183.445 35.4254 183.816 35.4254Z" fill="#F5F5F4"/>
<path d="M180.801 36.6246C181.172 36.6246 181.472 36.3239 181.472 35.9529C181.472 35.582 181.172 35.2812 180.801 35.2812C180.43 35.2812 180.129 35.582 180.129 35.9529C180.129 36.3239 180.43 36.6246 180.801 36.6246Z" fill="#F5F5F4"/>
<path d="M177.783 37.8297C178.154 37.8297 178.455 37.529 178.455 37.158C178.455 36.787 178.154 36.4863 177.783 36.4863C177.412 36.4863 177.111 36.787 177.111 37.158C177.111 37.529 177.412 37.8297 177.783 37.8297Z" fill="#F5F5F4"/>
<path d="M152.396 54.64L153.545 54.1833L155.668 56.5745C155.936 56.8902 156.205 57.226 156.48 57.5484L156.514 57.535C156.494 57.1118 156.447 56.6819 156.427 56.2722L156.306 53.0817L157.454 52.625L159.731 58.341L158.804 58.7104L157.763 56.0976C157.555 55.567 157.333 54.7744 157.172 54.2303L157.139 54.2437L157.206 55.755L157.286 58.697L156.682 58.9388L154.714 56.7491L153.733 55.6005L153.7 55.614C153.961 56.1244 154.344 56.8499 154.553 57.3805L155.594 59.9933L154.68 60.356L152.396 54.64Z" fill="#F5F5F4"/>
<path d="M158.904 52.0456L159.918 51.6426L162.195 57.3586L161.181 57.7616L158.904 52.0456Z" fill="#F5F5F4"/>
<path d="M161.363 51.0653L162.888 50.4607C164.641 49.7622 166.052 50.2928 166.804 52.187C167.556 54.0811 166.918 55.4782 165.219 56.1566L163.64 56.7812L161.363 51.0653ZM164.775 55.3842C165.924 54.9274 166.327 54.0072 165.769 52.6034C165.212 51.1996 164.305 50.8503 163.157 51.3138L162.713 51.4884L164.332 55.5588L164.775 55.3842Z" fill="#F5F5F4"/>
<path d="M166.824 48.8953L168.349 48.2908C170.102 47.5923 171.513 48.1229 172.265 50.017C173.017 51.9112 172.379 53.3083 170.68 53.9867L169.101 54.618L166.824 48.8953ZM170.236 53.2075C171.385 52.7508 171.788 51.8306 171.23 50.4268C170.673 49.0229 169.766 48.6737 168.618 49.1371L168.174 49.3118L169.8 53.3822L170.236 53.2075Z" fill="#F5F5F4"/>
<path d="M172.283 46.7194L173.297 46.3164L175.232 51.1794L177.603 50.2323L177.945 51.0853L174.56 52.4354L172.283 46.7194Z" fill="#F5F5F4"/>
<path d="M176.672 44.9737L180.111 43.6035L180.453 44.4566L178.029 45.4238L178.613 46.888L180.668 46.0686L181.011 46.9216L178.956 47.7411L179.627 49.4337L182.139 48.4329L182.482 49.2859L178.956 50.6897L176.672 44.9737Z" fill="#F5F5F4"/>
<path d="M115.66 51.791C123.485 51.5492 141.735 31.8086 141.735 31.8086" stroke="#14191D" stroke-miterlimit="10" stroke-dasharray="3 3"/>
<path d="M158.084 22.5157C158.084 22.5157 178.456 10.5598 166.07 34.0753" stroke="#14191D" stroke-miterlimit="10" stroke-dasharray="3 3"/>
</svg>
