<svg width="194" height="117" viewBox="0 0 194 117" fill="none" xmlns="http://www.w3.org/2000/svg">
<path d="M131.865 55.8851L173.98 55.919L173.994 43.252" fill="#F5F5F4"/>
<path d="M131.865 55.8851L173.98 55.919L173.994 43.252" stroke="#F5F5F4" stroke-miterlimit="10" stroke-linecap="round"/>
<path d="M192.727 9.58025L192.686 63.3255C192.679 68.0223 188.87 71.8312 184.174 71.8244L102.444 71.7567C97.7475 71.7499 93.9385 67.9409 93.9453 63.2442L93.9859 9.49893C93.9927 4.80215 97.8017 0.993232 102.498 1.00001L184.228 1.06777C188.925 1.07454 192.734 4.88347 192.727 9.58025Z" fill="#F5F5F4" stroke="#14191D" stroke-miterlimit="10" stroke-linecap="round"/>
<path d="M101.484 7.61547L101.438 65.4746L184.421 65.5409L184.467 7.68174L101.484 7.61547Z" fill="#F5F5F4" stroke="#14191D" stroke-miterlimit="10" stroke-linecap="round"/>
<path d="M179.641 13.9258H107.332V14.8001H179.641V13.9258Z" stroke="#14191D" stroke-miterlimit="10"/>
<path d="M179.621 22.1602H139.695V57.4775H179.621V22.1602Z" stroke="#14191D" stroke-miterlimit="10" stroke-linecap="round"/>
<path d="M139.68 57.4624C142.967 53.0028 152.11 20.3355 156.562 49.8581C158.873 61.8542 162.554 24.9238 168.192 24.9238C173.831 24.9238 179.619 45.9272 179.619 45.9272" fill="#14191D"/>
<path d="M139.68 57.4624C142.967 53.0028 152.11 20.3355 156.562 49.8581C158.873 61.8542 162.554 24.9238 168.192 24.9238C173.831 24.9238 179.619 45.9272 179.619 45.9272" stroke="#14191D" stroke-miterlimit="10" stroke-linecap="round"/>
<path d="M139.68 57.4615L179.606 57.4954L179.619 44.5098" fill="#14191D"/>
<path d="M133.853 22.2266H107.732V23.1008H133.853V22.2266Z" stroke="#14191D" stroke-miterlimit="10"/>
<path d="M133.853 25.5742H107.732V26.4485H133.853V25.5742Z" stroke="#14191D" stroke-miterlimit="10"/>
<path d="M133.853 29.0723H107.732V29.9465H133.853V29.0723Z" stroke="#14191D" stroke-miterlimit="10"/>
<path d="M133.853 32.4199H107.732V33.2942H133.853V32.4199Z" stroke="#14191D" stroke-miterlimit="10"/>
<path d="M133.853 35.959H107.732V36.8333H133.853V35.959Z" stroke="#14191D" stroke-miterlimit="10"/>
<path d="M121.002 85.1022H70.8627C65.827 85.1022 61.7402 81.0222 61.7402 75.9797V50.0424C61.7402 45.0067 65.8202 40.9199 70.8627 40.9199H121.002C126.038 40.9199 130.125 45 130.125 50.0424V75.9797C130.125 81.0222 126.038 85.1022 121.002 85.1022Z" fill="#14191D" stroke="#14191D" stroke-miterlimit="10"/>
<path d="M73.9648 54.0469H77.7195V54.9754H75.0696V56.7375H77.3264V57.666H75.0696V60.2618H73.9716V54.0469H73.9648Z" fill="#F5F5F4"/>
<path d="M78.8027 54.0469H80.8969C82.1914 54.0469 83.1809 54.5009 83.1809 55.8903C83.1809 57.2255 82.1847 57.8287 80.8969 57.8287H79.9075V60.255H78.8095V54.0469H78.8027ZM80.7817 56.9476C81.6289 56.9476 82.0966 56.5952 82.0966 55.8903C82.0966 55.1787 81.6357 54.9279 80.7817 54.9279H79.9075V56.9476H80.7817ZM80.6868 57.5305L81.4866 56.8731L83.4249 60.2482H82.1847L80.6868 57.5305Z" fill="#F5F5F4"/>
<path d="M84.0957 57.1238C84.0957 55.1177 85.214 53.9316 86.8338 53.9316C88.4536 53.9316 89.5719 55.1245 89.5719 57.1238C89.5719 59.13 88.4536 60.3702 86.8338 60.3702C85.214 60.3702 84.0957 59.13 84.0957 57.1238ZM88.4401 57.1238C88.4401 55.7277 87.8098 54.8873 86.8338 54.8873C85.8579 54.8873 85.2276 55.7277 85.2276 57.1238C85.2276 58.52 85.8579 59.4078 86.8338 59.4078C87.8098 59.4078 88.4401 58.52 88.4401 57.1238Z" fill="#F5F5F4"/>
<path d="M90.8125 54.0469H91.9444L93.8759 57.5372L94.5197 58.8656H94.5605C94.5062 58.2218 94.4181 57.4356 94.4181 56.7443V54.0469H95.4686V60.255H94.3367L92.4052 56.7579L91.7614 55.4362H91.7207C91.7749 56.0937 91.863 56.8392 91.863 57.5305V60.2482H90.8125V54.0469Z" fill="#F5F5F4"/>
<path d="M98.2971 54.9695H96.5078V54.041H101.191V54.9695H99.4018V60.2491H98.3039V54.9695H98.2971Z" fill="#F5F5F4"/>
<path d="M102.219 54.0469H105.953V54.9754H103.317V56.5681H105.547V57.4966H103.317V59.3333H106.048V60.2618H102.219V54.0469Z" fill="#F5F5F4"/>
<path d="M107.324 54.0469H108.456L110.388 57.5372L111.031 58.8656H111.072C111.018 58.2218 110.93 57.4356 110.93 56.7443V54.0469H111.98V60.255H110.848L108.917 56.7579L108.273 55.4362H108.232C108.287 56.0937 108.375 56.8392 108.375 57.5305V60.2482H107.324V54.0469Z" fill="#F5F5F4"/>
<path d="M113.551 54.0469H115.204C117.109 54.0469 118.234 55.0703 118.234 57.1238C118.234 59.1774 117.109 60.255 115.265 60.255H113.551V54.0469ZM115.13 59.3604C116.377 59.3604 117.095 58.6488 117.095 57.1238C117.095 55.5989 116.377 54.9347 115.13 54.9347H114.649V59.3604H115.13Z" fill="#F5F5F4"/>
<path d="M67.3477 63.3867H69.3064C70.6822 63.3867 71.7056 63.8679 71.7056 65.298C71.7056 66.6806 70.6821 67.3109 69.347 67.3109H68.4456V69.5949H67.3477V63.3867ZM69.2454 66.4298C70.1739 66.4298 70.6144 66.0638 70.6144 65.298C70.6144 64.5253 70.1332 64.2678 69.2115 64.2678H68.4456V66.4298H69.2454Z" fill="#F5F5F4"/>
<path d="M74.0831 63.3867H75.3776L77.4041 69.5949H76.2384L75.2895 66.2875C75.093 65.6301 74.91 64.9252 74.727 64.2407H74.6863C74.5169 64.9252 74.3339 65.6301 74.1374 66.2875L73.1817 69.5949H72.0566L74.0831 63.3867ZM73.2563 67.0466H76.1774V67.9073H73.2563V67.0466Z" fill="#F5F5F4"/>
<path d="M77.7383 68.8279L78.3347 68.0689C78.843 68.5568 79.3514 68.7466 79.9884 68.7466C80.7136 68.7466 81.2626 68.3807 81.2626 67.7232C81.2626 67.0658 80.7746 66.7676 79.8664 66.7676H79.1006V65.9408H79.6766C80.5916 65.9408 80.9576 65.6222 80.9576 65.0597C80.9576 64.4904 80.5171 64.2193 79.9139 64.2193C79.3853 64.2193 78.9447 64.4158 78.5516 64.7479L77.989 64.016C78.4838 63.5483 79.1954 63.2637 79.9545 63.2637C81.2558 63.2637 82.042 63.8804 82.042 64.8903C82.042 65.5138 81.7438 66.0356 81.1881 66.2593V66.3C81.8523 66.4558 82.3538 66.998 82.3538 67.791C82.3538 69.0245 81.3235 69.7023 80.0155 69.7023C79.1412 69.709 78.3821 69.4515 77.7383 68.8279Z" fill="#F5F5F4"/>
<path d="M83.4629 63.3867H85.4216C86.7974 63.3867 87.8207 63.8679 87.8207 65.298C87.8207 66.6806 86.7974 67.3109 85.4622 67.3109H84.5676V69.5949H83.4697V63.3867H83.4629ZM85.3673 66.4298C86.2958 66.4298 86.7364 66.0638 86.7364 65.298C86.7364 64.5253 86.2552 64.2678 85.3335 64.2678H84.5676V66.4298H85.3673Z" fill="#F5F5F4"/>
<path d="M90.2003 63.3867H91.4948L93.5213 69.5949H92.3555L91.4067 66.2875C91.2101 65.6301 91.0272 64.9252 90.8442 64.2407H90.8035C90.634 64.9252 90.4511 65.6301 90.2546 66.2875L89.2989 69.5949H88.1738L90.2003 63.3867ZM89.3735 67.0466H92.2945V67.9073H89.3735V67.0466Z" fill="#F5F5F4"/>
<path d="M94.2822 63.3867H98.3215V64.3152H95.3801V65.908H96.3967C97.7116 65.908 98.7214 66.3688 98.7214 67.6769C98.7214 69.0324 97.7658 69.6016 96.4307 69.6016H94.2754V63.3867H94.2822ZM96.3018 68.7341C97.2032 68.7341 97.6506 68.4088 97.6506 67.6836C97.6506 66.9923 97.1829 66.7212 96.2883 66.7212H95.3869V68.7273H96.3018V68.7341Z" fill="#F5F5F4"/>
<path d="M99.5527 66.4636C99.5527 64.4575 100.671 63.2715 102.291 63.2715C103.911 63.2715 105.029 64.4643 105.029 66.4636C105.029 68.4698 103.911 69.7101 102.291 69.7101C100.671 69.7101 99.5527 68.4698 99.5527 66.4636ZM103.897 66.4636C103.897 65.0675 103.267 64.2271 102.291 64.2271C101.315 64.2271 100.685 65.0675 100.685 66.4636C100.685 67.8598 101.315 68.7476 102.291 68.7476C103.267 68.7476 103.897 67.8598 103.897 66.4636Z" fill="#F5F5F4"/>
<path d="M107.531 64.3074H105.742V63.3789H110.425V64.3074H108.636V69.587H107.538V64.3074H107.531Z" fill="#F5F5F4"/>
<path d="M114.608 66.9517C114.317 66.9991 114.025 67.033 113.578 67.033C112.141 67.033 111.273 66.4705 111.273 64.8846V63.3867H112.351V64.8846C112.351 65.8266 112.798 66.1451 113.686 66.1451C114.1 66.1451 114.384 66.1113 114.608 66.0638V63.3867H115.706V69.5949H114.608V66.9517Z" fill="#F5F5F4"/>
<path d="M117.283 63.3867H118.374V66.0841C118.374 66.7754 118.286 67.5617 118.232 68.2055H118.273L118.917 66.8907L120.868 63.3935H122.034V69.6016H120.943V66.8839C120.943 66.1926 121.031 65.4471 121.085 64.7897H121.045L120.401 66.1045L118.449 69.6084H117.283V63.3867Z" fill="#F5F5F4"/>
<path d="M123.602 63.3857H124.7V65.9136H126.211L128.515 69.5938H127.343L125.567 66.8083H124.7V69.5938H123.602V63.3857ZM125.465 66.1102L126.414 64.4023C126.909 63.5144 127.302 63.2637 127.939 63.2637C128.081 63.2637 128.251 63.284 128.366 63.3382L128.183 64.348C128.095 64.3209 127.993 64.3074 127.939 64.3074C127.661 64.3074 127.499 64.4226 127.187 64.9783L126.428 66.3271L125.465 66.1102Z" fill="#F5F5F4"/>
<path d="M68.4828 116.001H18.3431C13.3075 116.001 9.2207 111.921 9.2207 106.878V80.9408C9.2207 75.9051 13.3007 71.8184 18.3431 71.8184H68.4828C73.5185 71.8184 77.6053 75.8984 77.6053 80.9408V106.878C77.6053 111.914 73.5185 116.001 68.4828 116.001Z" fill="#F5F5F4" stroke="#14191D" stroke-miterlimit="10"/>
<path d="M10.6037 8.51094C10.6037 8.51094 11.0713 8.12462 21.7322 21.3881C37.9846 41.6188 62.275 32.8217 61.3058 39.3416C60.7297 43.2386 43.4336 43.4216 45.6227 44.5128C52.895 49.7518 72.6038 56.5766 67.5614 59.6604C64.1862 61.7275 36.2835 46.4511 41.9426 51.6155C48.3067 57.4238 62.1869 74.808 58.8795 76.3736C54.9486 78.2374 36.0191 54.0554 36.4326 54.9433C41.8884 65.6177 40.0788 66.5191 37.3339 67.224C34.7788 67.8814 28.4758 55.865 29.6212 58.1558C30.7666 60.4466 36.7037 69.0743 30.8479 69.5691C29.14 69.7114 18.1266 54.3401 14.4532 44.7364C10.3868 34.0958 1 23.1502 1 23.1502" fill="#F5F5F4"/>
<path d="M10.6037 8.51094C10.6037 8.51094 11.0713 8.12462 21.7322 21.3881C37.9846 41.6188 62.275 32.8217 61.3058 39.3416C60.7297 43.2386 43.4336 43.4216 45.6227 44.5128C52.895 49.7518 72.6038 56.5766 67.5614 59.6604C64.1862 61.7275 36.2835 46.4511 41.9426 51.6155C48.3067 57.4238 62.1869 74.808 58.8795 76.3736C54.9486 78.2374 36.0191 54.0554 36.4326 54.9433C41.8884 65.6177 40.0788 66.5191 37.3339 67.224C34.7788 67.8814 28.4758 55.865 29.6212 58.1558C30.7666 60.4466 36.7037 69.0743 30.8479 69.5691C29.14 69.7114 18.1266 54.3401 14.4532 44.7364C10.3868 34.0958 1 23.1502 1 23.1502" stroke="#14191D" stroke-miterlimit="10"/>
<path d="M9.4043 79.1367H77.4228" stroke="#14191D" stroke-miterlimit="10"/>
<path d="M25.8518 76.7583C26.3384 76.7583 26.7328 76.3638 26.7328 75.8772C26.7328 75.3906 26.3384 74.9961 25.8518 74.9961C25.3652 74.9961 24.9707 75.3906 24.9707 75.8772C24.9707 76.3638 25.3652 76.7583 25.8518 76.7583Z" stroke="#14191D" stroke-miterlimit="10"/>
<path d="M21.5901 76.7583C22.0767 76.7583 22.4712 76.3638 22.4712 75.8772C22.4712 75.3906 22.0767 74.9961 21.5901 74.9961C21.1035 74.9961 20.709 75.3906 20.709 75.8772C20.709 76.3638 21.1035 76.7583 21.5901 76.7583Z" stroke="#14191D" stroke-miterlimit="10"/>
<path d="M17.3263 76.7583C17.8129 76.7583 18.2074 76.3638 18.2074 75.8772C18.2074 75.3906 17.8129 74.9961 17.3263 74.9961C16.8397 74.9961 16.4453 75.3906 16.4453 75.8772C16.4453 76.3638 16.8397 76.7583 17.3263 76.7583Z" stroke="#14191D" stroke-miterlimit="10"/>
<path d="M59.5967 109.536H27.2343C26.0483 109.536 25.0859 108.573 25.0859 107.387V105.984C25.0859 104.798 26.0483 103.836 27.2343 103.836H59.5967C60.7827 103.836 61.7452 104.798 61.7452 105.984V107.387C61.7452 108.573 60.7827 109.536 59.5967 109.536Z" fill="#14191D" stroke="#14191D" stroke-miterlimit="10"/>
<path d="M67.2841 99.2054H19.5505C17.28 99.2054 15.4434 97.3687 15.4434 95.0982V89.6559C15.4434 87.3855 17.28 85.5488 19.5505 85.5488H67.2841C69.5546 85.5488 71.3912 87.3855 71.3912 89.6559V95.0982C71.3912 97.3687 69.5546 99.2054 67.2841 99.2054Z" fill="#14191D" stroke="#14191D" stroke-miterlimit="10"/>
<path d="M25.4341 92.5268L23.7803 89.5176H25.0003L25.6916 90.8934C25.8407 91.1781 25.9762 91.4695 26.1592 91.8423H26.1999C26.3558 91.4695 26.4778 91.1781 26.6201 90.8934L27.2775 89.5176H28.45L26.7964 92.581L28.5585 95.7258H27.3385L26.5794 94.2618C26.4168 93.95 26.2677 93.6315 26.0847 93.252H26.044C25.8813 93.6315 25.7323 93.95 25.5832 94.2618L24.8444 95.7258H23.6719L25.4341 92.5268Z" fill="#F5F5F4"/>
<path d="M29.1426 92.5946C29.1426 90.5885 30.2609 89.4023 31.8807 89.4023C33.5005 89.4023 34.6187 90.5952 34.6187 92.5946C34.6187 94.6007 33.5005 95.8409 31.8807 95.8409C30.2609 95.8409 29.1426 94.6075 29.1426 92.5946ZM33.487 92.5946C33.487 91.1984 32.8567 90.358 31.8807 90.358C30.9047 90.358 30.2744 91.1984 30.2744 92.5946C30.2744 93.9907 30.9047 94.8786 31.8807 94.8786C32.8567 94.8854 33.487 93.9907 33.487 92.5946Z" fill="#F5F5F4"/>
<path d="M39.0102 93.0825C38.7188 93.13 38.4274 93.1639 37.9801 93.1639C36.5433 93.1639 35.6758 92.6013 35.6758 91.0154V89.5176H36.7534V91.0154C36.7534 91.9574 37.2007 92.276 38.0885 92.276C38.5019 92.276 38.7866 92.2421 39.0102 92.1946V89.5176H40.1082V95.7258H39.0102V93.0825Z" fill="#F5F5F4"/>
<path d="M41.5929 95.7325L41.803 94.7701C41.9114 94.8108 42.0199 94.8379 42.2368 94.8379C42.5756 94.8379 42.7925 94.7227 42.9349 94.4448L43.0501 94.1873L40.9355 89.5176H42.1012L43.0365 91.8016L43.5313 93.1571H43.572L44.0396 91.8016L44.9003 89.5176H46.0119L44.0396 94.4584C43.6939 95.3191 43.1856 95.8409 42.3113 95.8409C41.9792 95.8409 41.7692 95.8003 41.5929 95.7325Z" fill="#F5F5F4"/>
<path d="M48.6602 89.5176H50.6459C51.9201 89.5176 52.8621 89.9107 52.8621 91.0493C52.8621 91.6322 52.5436 92.2014 52.0014 92.3912V92.4319C52.6859 92.5878 53.1942 93.0689 53.1942 93.9026C53.1942 95.1428 52.1776 95.7258 50.8086 95.7258H48.6602V89.5176ZM50.551 92.0795C51.4185 92.0795 51.7846 91.7406 51.7846 91.2052C51.7846 90.602 51.3779 90.3783 50.5714 90.3783H49.7648V92.0863H50.551V92.0795ZM50.6934 94.865C51.6016 94.865 52.1166 94.5397 52.1166 93.8416C52.1166 93.191 51.6219 92.9063 50.6934 92.9063H49.7648V94.8718H50.6934V94.865Z" fill="#F5F5F4"/>
<path d="M56.2227 89.5176H57.3206V95.7258H56.2227V89.5176Z" fill="#F5F5F4"/>
<path d="M60.1545 90.4461H58.3652V89.5176H63.0485V90.4461H61.2592V95.7258H60.1613V90.4461H60.1545Z" fill="#F5F5F4"/>
<path d="M79.5293 97.8831C79.5293 97.8831 100.567 110.604 110.841 110.699C134.047 110.923 136.656 87.9474 122.98 94.7045C105.243 103.468 164.146 103.068 166.43 74.0469" stroke="#14191D" stroke-miterlimit="10" stroke-linecap="round" stroke-dasharray="3 3"/>
</svg>
