<svg width="208" height="117" viewBox="0 0 208 117" fill="none" xmlns="http://www.w3.org/2000/svg">
<path d="M88.7043 116.236H34.9909C28.899 116.236 23.957 111.294 23.957 105.202V25.7877C23.957 19.6959 28.899 14.7539 34.9909 14.7539H176.657C182.749 14.7539 187.691 19.6959 187.691 25.7877V105.202C187.691 111.294 182.749 116.236 176.657 116.236H124.662" fill="#F5F5F4"/>
<path d="M88.7043 116.236H34.9909C28.899 116.236 23.957 111.294 23.957 105.202V25.7877C23.957 19.6959 28.899 14.7539 34.9909 14.7539H176.657C182.749 14.7539 187.691 19.6959 187.691 25.7877V105.202C187.691 111.294 182.749 116.236 176.657 116.236H124.662" stroke="#14191D" stroke-miterlimit="10"/>
<path d="M23.9512 25.7871H187.691" stroke="#14191D" stroke-miterlimit="10"/>
<path d="M51.4626 22.0327C52.3578 22.0327 53.0834 21.307 53.0834 20.4118C53.0834 19.5167 52.3578 18.791 51.4626 18.791C50.5675 18.791 49.8418 19.5167 49.8418 20.4118C49.8418 21.307 50.5675 22.0327 51.4626 22.0327Z" fill="#14191D" stroke="#14191D" stroke-miterlimit="10"/>
<path d="M43.3103 22.0327C44.2054 22.0327 44.9311 21.307 44.9311 20.4118C44.9311 19.5167 44.2054 18.791 43.3103 18.791C42.4151 18.791 41.6895 19.5167 41.6895 20.4118C41.6895 21.307 42.4151 22.0327 43.3103 22.0327Z" stroke="#14191D" stroke-miterlimit="10"/>
<path d="M35.113 22.0327C36.0082 22.0327 36.7338 21.307 36.7338 20.4118C36.7338 19.5167 36.0082 18.791 35.113 18.791C34.2179 18.791 33.4922 19.5167 33.4922 20.4118C33.4922 21.307 34.2179 22.0327 35.113 22.0327Z" stroke="#14191D" stroke-miterlimit="10"/>
<path d="M44.3555 67.1034H3.55359C1.59025 67.1034 0 65.5131 0 63.5498V38.9989C0 37.0356 1.59025 35.4453 3.55359 35.4453H44.3555C46.3189 35.4453 47.9091 37.0356 47.9091 38.9989V63.5498C47.9152 65.5131 46.3189 67.1034 44.3555 67.1034Z" fill="#14191D"/>
<path d="M175.838 39.3555H116.656V40.2362H175.838V39.3555Z" fill="#F5F5F4" stroke="#14191D" stroke-miterlimit="10"/>
<path d="M175.838 43.7891H116.656V44.6698H175.838V43.7891Z" fill="#F5F5F4" stroke="#14191D" stroke-miterlimit="10"/>
<path d="M175.838 55.918H116.656V56.7987H175.838V55.918Z" fill="#F5F5F4" stroke="#14191D" stroke-miterlimit="10"/>
<path d="M143.256 47.9668H116.656V48.8475H143.256V47.9668Z" fill="#F5F5F4" stroke="#14191D" stroke-miterlimit="10"/>
<path d="M160.915 47.9668H145.281V48.8475H160.915V47.9668Z" fill="#F5F5F4" stroke="#14191D" stroke-miterlimit="10"/>
<path d="M175.838 47.9668H162.871V48.8475H175.838V47.9668Z" fill="#F5F5F4" stroke="#14191D" stroke-miterlimit="10"/>
<path d="M175.838 52.1367H116.656V53.0175H175.838V52.1367Z" fill="#F5F5F4" stroke="#14191D" stroke-miterlimit="10"/>
<path d="M97.2304 82.75H35.2109V83.6308H97.2304V82.75Z" fill="#F5F5F4" stroke="#14191D" stroke-miterlimit="10"/>
<path d="M97.2304 87.1836H35.2109V88.0643H97.2304V87.1836Z" fill="#F5F5F4" stroke="#14191D" stroke-miterlimit="10"/>
<path d="M97.2304 99.3184H35.2109V100.199H97.2304V99.3184Z" fill="#F5F5F4" stroke="#14191D" stroke-miterlimit="10"/>
<path d="M48.1041 91.3613H35.2109V92.2421H48.1041V91.3613Z" fill="#F5F5F4" stroke="#14191D" stroke-miterlimit="10"/>
<path d="M65.7563 91.3613H50.123V92.2421H65.7563V91.3613Z" fill="#F5F5F4" stroke="#14191D" stroke-miterlimit="10"/>
<path d="M41.4006 95.5391H35.2109V96.4198H41.4006V95.5391Z" fill="#F5F5F4" stroke="#14191D" stroke-miterlimit="10"/>
<path d="M97.2322 91.3613H67.7148V92.2421H97.2322V91.3613Z" fill="#F5F5F4" stroke="#14191D" stroke-miterlimit="10"/>
<path d="M97.2304 95.5391H43.627V96.4198H97.2304V95.5391Z" fill="#F5F5F4" stroke="#14191D" stroke-miterlimit="10"/>
<path d="M175.838 61.8613H164.443V96.6448H175.838V61.8613Z" fill="#14191D" stroke="#14191D" stroke-miterlimit="10"/>
<path d="M160.151 61.8613H148.756V96.6448H160.151V61.8613Z" fill="#14191D" stroke="#14191D" stroke-miterlimit="10"/>
<path d="M128.051 61.8613H116.656V96.6448H128.051V61.8613Z" fill="#14191D" stroke="#14191D" stroke-miterlimit="10"/>
<path d="M144.102 61.8613H132.707V96.6448H144.102V61.8613Z" fill="#14191D" stroke="#14191D" stroke-miterlimit="10"/>
<path d="M175.839 99.3184H148.756V100.199H175.839V99.3184Z" fill="#F5F5F4" stroke="#14191D" stroke-miterlimit="10"/>
<path d="M144.1 99.3184H116.656V100.199H144.1V99.3184Z" fill="#F5F5F4" stroke="#14191D" stroke-miterlimit="10"/>
<path d="M169.355 17.4883L175.203 23.3355" stroke="#14191D" stroke-miterlimit="10" stroke-linecap="round"/>
<path d="M175.201 17.6289L169.494 23.3354" stroke="#14191D" stroke-miterlimit="10" stroke-linecap="round"/>
<path d="M96.7047 39.4102H55.3828V74.1937H96.7047V39.4102Z" fill="#14191D" stroke="#14191D" stroke-miterlimit="10"/>
<path d="M96.7047 76.8594H55.3828V77.7401H96.7047V76.8594Z" fill="#F5F5F4" stroke="#14191D" stroke-miterlimit="10"/>
<path d="M88.7051 116.236H124.663" stroke="#14191D" stroke-miterlimit="10"/>
<path d="M55.3828 74.1921C57.7559 70.6935 60.1535 63.2316 63.2606 63.2316C66.3677 63.2316 68.3188 65.8739 69.1262 67.25C69.9274 68.6262 72.6859 70.6935 74.5208 66.9075C76.3557 63.1215 82.4414 49.158 86.8023 48.846C91.1633 48.5341 96.7047 65.5008 96.7047 65.5008" stroke="#F5F5F4" stroke-miterlimit="10"/>
<path d="M11.4609 51.5863V50.3508L17.9932 47.8125V49.2315L15.1552 50.2223L13.1796 50.9318V50.993L15.1552 51.7025L17.9932 52.6933V54.1123L11.4609 51.5863Z" fill="#F5F5F4"/>
<path d="M25.027 45.4219H26.1707L22.7395 58.1927H21.5957L25.027 45.4219Z" fill="#F5F5F4"/>
<path d="M29.9141 52.7011L32.752 51.7103L34.7276 51.0008V50.9396L32.752 50.2301L29.9141 49.2393V47.8203L36.4463 50.3586V51.5941L29.9141 54.1324V52.7011Z" fill="#F5F5F4"/>
<path d="M111.078 14.7486C111.078 14.7486 111.347 14.5773 111.861 14.2715" stroke="#14191D" stroke-miterlimit="10"/>
<path d="M113.445 13.3721C123.678 7.70844 165.306 -12.2308 202.181 14.9257" stroke="#14191D" stroke-miterlimit="10" stroke-dasharray="2.98 2.98"/>
<path d="M202.914 15.4766C203.159 15.6601 203.403 15.8497 203.642 16.0331" stroke="#14191D" stroke-miterlimit="10"/>
<path d="M189.734 16.0391C189.734 16.0391 203.16 20.1859 206.236 33.3605C209.319 46.535 191.783 58.0826 191.783 58.0826" stroke="#14191D" stroke-miterlimit="10" stroke-dasharray="3 3"/>
<path d="M197.783 32.3086C201.043 45.1223 182.486 56.3641 182.486 56.3641" stroke="#14191D" stroke-miterlimit="10" stroke-dasharray="3 3"/>
</svg>
