<svg width="180" height="118" viewBox="0 0 180 118" fill="none" xmlns="http://www.w3.org/2000/svg">
<path d="M112.063 15.9323C112.063 15.9323 111.771 15.7462 111.213 15.4141" stroke="#14191D" stroke-miterlimit="10"/>
<path d="M109.499 14.4385C98.3845 8.28665 53.1689 -13.3711 13.1152 16.126" stroke="#14191D" stroke-miterlimit="10" stroke-dasharray="2.98 2.98"/>
<path d="M12.3179 16.7246C12.0522 16.9239 11.7864 17.1299 11.5273 17.3292" stroke="#14191D" stroke-miterlimit="10"/>
<path d="M29.9577 21.3145C29.9577 21.3145 6.91137 29.8248 1.62315 56.8704C-3.66508 83.9161 26.4432 107.633 26.4432 107.633" stroke="#14191D" stroke-miterlimit="10" stroke-dasharray="3 3"/>
<path d="M135.357 53.9679L90.3202 44.5076C85.816 43.5575 82.926 39.1396 83.876 34.6287L89.3104 8.76556C90.2605 4.26127 94.6784 1.37134 99.1893 2.32136L144.226 11.7817C148.73 12.7317 151.62 17.1497 150.67 21.6606L145.235 47.5237C144.285 52.028 139.861 54.9113 135.357 53.9679Z" fill="#F5F5F4" stroke="#14191D" stroke-miterlimit="10"/>
<path d="M155.46 101.413C149.807 76.1344 135.072 57.8515 135.072 57.8515L108.504 45.3086H87.4443L72.0713 64.123C67.2813 70.8661 64.3449 74.3672 66.0589 77.1708C67.7729 79.9743 90.0751 58.8813 90.0751 58.8813C90.0751 58.8813 66.2981 82.6384 65.5673 86.1926C64.8365 89.7469 67.0421 97.3006 99.1369 63.7576C102.319 67.757 77.0871 85.0832 75.6122 89.5277C74.1374 93.9722 77.8179 97.7457 110.404 70.2018C110.404 74.4204 96.9113 82.7513 96.1938 83.9737C94.7455 86.4385 96.1938 92.1917 114.078 75.975" fill="#F5F5F4"/>
<path d="M155.46 101.413C149.807 76.1344 135.072 57.8515 135.072 57.8515L108.504 45.3086H87.4443L72.0713 64.123C67.2813 70.8661 64.3449 74.3672 66.0589 77.1708C67.7729 79.9743 90.0751 58.8813 90.0751 58.8813C90.0751 58.8813 66.2981 82.6384 65.5673 86.1927C64.8365 89.7469 67.0421 97.3006 99.1369 63.7576C102.319 67.757 77.0871 85.0832 75.6122 89.5277C74.1374 93.9722 77.8179 97.7457 110.404 70.2018C110.404 74.4204 96.9113 82.7513 96.1938 83.9737C94.7455 86.4385 96.1938 92.1917 114.078 75.975" stroke="#14191D" stroke-miterlimit="10"/>
<path d="M75.2989 83.9287L43.9549 99.3151C38.2149 102.132 31.2725 99.7668 28.4556 94.0202L19.6464 76.0828C16.8295 70.3428 19.1946 63.4003 24.9412 60.5835L56.2852 45.1972C62.0252 42.3803 68.9677 44.7454 71.7845 50.492L80.5938 68.4295C83.4106 74.1694 81.0389 81.1053 75.2989 83.9287Z" fill="#F5F5F4" stroke="#14191D" stroke-miterlimit="10"/>
<path d="M45.3175 86.1008L41.7832 78.8926" stroke="#14191D" stroke-miterlimit="10" stroke-linecap="round"/>
<path d="M41.7832 82.5598V78.8926" stroke="#14191D" stroke-miterlimit="10" stroke-linecap="round"/>
<path d="M44.806 80.9786L41.7832 78.8926" stroke="#14191D" stroke-miterlimit="10" stroke-linecap="round"/>
<path d="M47.2848 97.6808L41.0399 100.75C36.9143 102.776 31.9184 101.076 29.8921 96.9434L18.2195 73.1663C16.1932 69.0407 17.894 64.0448 22.0262 62.0185L28.2711 58.9492L47.2848 97.6808Z" fill="#14191D" stroke="#14191D" stroke-miterlimit="10"/>
<path d="M30.4282 70.1201L24.4941 73.0332L24.9157 73.892L30.8498 70.9788L30.4282 70.1201Z" fill="#F5F5F4"/>
<path d="M31.6645 72.6298L25.7305 75.543L26.1521 76.4018L32.0861 73.4886L31.6645 72.6298Z" fill="#F5F5F4"/>
<path d="M32.895 75.1435L26.9609 78.0566L27.3825 78.9154L33.3166 76.0023L32.895 75.1435Z" fill="#F5F5F4"/>
<path d="M35.3848 82.0293L38.9257 89.2375" stroke="#F5F5F4" stroke-miterlimit="10" stroke-linecap="round"/>
<path d="M36.0234 86.9902L38.9266 89.2357" stroke="#F5F5F4" stroke-miterlimit="10" stroke-linecap="round"/>
<path d="M39.1251 85.5703L38.9258 89.2375" stroke="#F5F5F4" stroke-miterlimit="10" stroke-linecap="round"/>
<path d="M47.2832 97.6801C53.3155 87.8477 49.4357 75.0324 52.2791 71.983C55.1225 68.9337 58.7167 74.0027 60.4572 74.873C62.2045 75.7433 58.3712 65.1867 59.2149 63.4528C60.0586 61.7188 66.463 67.6581 67.6455 68.9071C68.8281 70.1561 67.2535 59.8055 66.5626 53.4078C65.8717 47.0035 80.5937 68.4288 80.5937 68.4288L80.122 79.5035L76.9198 82.9647L47.2832 97.6801Z" fill="#14191D" stroke="#14191D" stroke-miterlimit="10"/>
<path d="M85.5842 50.6322L46.9323 66.0384C42.6539 67.7458 37.8042 65.6598 36.1034 61.3813L26.2445 36.6476C24.5371 32.3692 26.6232 27.5195 30.9016 25.8187L69.5534 10.4124C73.8318 8.70507 78.6816 10.7911 80.3823 15.0695L90.2413 39.8033C91.9486 44.075 89.8626 48.9248 85.5842 50.6322Z" fill="#F5F5F4" stroke="#14191D" stroke-miterlimit="10"/>
<path d="M71.465 31.0998L43.5822 42.2144C41.9214 42.8721 40.0479 42.0682 39.3835 40.4074L36.9853 34.3884C36.3275 32.7275 37.1314 30.854 38.7923 30.1897L66.675 19.0751C68.3359 18.4174 70.2094 19.2213 70.8737 20.8821L73.272 26.9011C73.9297 28.5554 73.1192 30.4355 71.465 31.0998Z" fill="#14191D"/>
<path d="M44.32 37.6117L44.4994 36.9075C44.8914 37.0669 45.3232 37.1599 45.8015 36.9739C46.3263 36.7613 46.5788 36.2763 46.3529 35.7116C46.127 35.1536 45.6553 34.9742 45.1372 35.1802C44.8382 35.2998 44.6987 35.4459 44.4927 35.7449L43.9812 35.6452L43.1973 33.2668L45.7151 32.2637L46.0008 32.9878L44.227 33.6987L44.5791 34.8746C44.7385 34.6952 44.898 34.569 45.1372 34.476C45.9477 34.1571 46.798 34.3431 47.2033 35.3529C47.6152 36.3893 47.0638 37.2928 46.1935 37.6383C45.4228 37.9306 44.805 37.8176 44.32 37.6117Z" fill="#F5F5F4"/>
<path d="M51.2829 30.7153L50.1403 31.1737C50.2931 31.9244 50.406 32.3496 50.5522 33.107C50.8445 34.6217 50.7183 35.4322 50.107 35.7245L49.7217 35.2727C49.9011 35.1066 49.9808 34.6084 49.7217 33.293C49.5291 32.323 49.4095 31.7583 49.1836 30.7153L51.8476 29.6523L53.668 34.2098L52.811 34.5552L51.2829 30.7153ZM51.1899 37.1396L50.4259 37.4452L49.7151 35.8906L49.5025 35.3658L54.0599 33.5521L54.2725 34.0769L54.8239 35.6979L54.0599 36.0035L53.5085 34.615L50.6319 35.7644L51.1899 37.1396Z" fill="#F5F5F4"/>
<path d="M53.1758 29.1206L54.0328 28.7751L54.8101 30.7216L56.7699 29.9444L55.9926 27.9978L56.8496 27.6523L58.7762 32.4955L57.9192 32.8409L57.0622 30.6951L55.1024 31.4724L55.9594 33.6182L55.1024 33.9637L53.1758 29.1206Z" fill="#F5F5F4"/>
<path d="M58.0918 27.1685L61.0017 26.0059L61.2873 26.73L59.2345 27.5471L59.7261 28.7895L61.4667 28.0986L61.7524 28.8227L60.0118 29.5136L60.5831 30.9486L62.709 30.0983L62.9947 30.8224L60.0051 32.0116L58.0918 27.1685Z" fill="#F5F5F4"/>
<path d="M62.0723 25.58L62.9226 25.2412L63.7597 27.3406C63.9723 27.8787 64.1517 28.5165 64.3111 29.0347L64.3377 29.0214L64.4307 27.7923L64.8625 24.4573L65.7727 24.0986L67.6993 28.9416L66.8489 29.2805L66.0052 27.1612C65.7926 26.6231 65.6265 26.0119 65.4671 25.487L65.4405 25.5003L65.3475 26.7227L64.9157 30.0577L64.0055 30.4232L62.0723 25.58ZM62.1785 23.9258L62.9093 23.6335C63.0488 23.9457 63.2814 24.1251 63.6202 23.9856C63.959 23.8461 64.0055 23.5604 63.8926 23.2415L64.6234 22.9492C64.8094 23.5006 64.6831 24.0786 63.7996 24.4307C62.9093 24.7895 62.431 24.4573 62.1785 23.9258Z" fill="#F5F5F4"/>
<path d="M100.726 31.4507C100.265 31.6344 99.8441 31.7334 99.4623 31.7479C99.0879 31.7593 98.753 31.7077 98.4575 31.5929C98.162 31.4782 97.9082 31.3167 97.696 31.1085C97.4883 30.8899 97.3236 30.6498 97.2021 30.3882L98.5398 29.8549C98.6836 30.1076 98.904 30.2825 99.201 30.3794C99.5024 30.4659 99.8538 30.4291 100.255 30.2692C100.708 30.0885 101.008 29.814 101.154 29.4458C101.307 29.0745 101.282 28.6326 101.078 28.1198C100.962 27.83 100.821 27.6063 100.655 27.4486C100.493 27.2805 100.322 27.1637 100.141 27.0981C99.9566 27.0251 99.765 26.9982 99.5659 27.0173C99.3713 27.0259 99.1848 27.0658 99.0064 27.1369C98.6869 27.2643 98.4416 27.4267 98.2705 27.6241C98.1069 27.8185 98.0004 28.0375 97.9511 28.2811L96.7472 28.761L95.0587 24.5252L99.9075 22.5922L100.37 23.7515L96.8361 25.1601L97.5604 26.977C97.6662 26.7454 97.815 26.5354 98.0068 26.3469C98.1957 26.1511 98.4648 25.9835 98.8141 25.8443C99.1931 25.6932 99.5586 25.6164 99.9107 25.6138C100.27 25.6083 100.604 25.6778 100.911 25.8222C101.226 25.9637 101.511 26.1817 101.766 26.4761C102.018 26.7631 102.233 27.1296 102.411 27.5754C102.58 27.999 102.665 28.4084 102.668 28.8035C102.67 29.1987 102.596 29.5641 102.446 29.8996C102.296 30.2352 102.076 30.538 101.788 30.808C101.496 31.0706 101.142 31.2848 100.726 31.4507ZM102.334 44.3954L103.17 44.0622C103.202 43.7309 103.181 43.3558 103.109 42.9368C103.041 42.5074 102.941 42.0609 102.807 41.5972C102.682 41.1306 102.533 40.6603 102.361 40.1862C102.197 39.7091 102.029 39.2551 101.857 38.8241L101.19 37.1521L106.474 35.0458L109.122 41.6893L110.025 41.3294L111.065 43.9377L109.839 44.4265L109.261 42.9774L104.022 45.0659L104.6 46.515L103.374 47.0038L102.334 44.3954ZM107.785 42.2225L105.598 36.7383L102.946 37.7959L103.239 38.5316C103.665 39.6017 103.979 40.5402 104.18 41.347C104.381 42.1539 104.498 42.8783 104.53 43.5201L107.785 42.2225ZM108.717 34.1516L110.055 33.6184L111.334 36.8286L115.124 35.3178L113.845 32.1075L115.182 31.5743L118.293 39.3771L116.955 39.9103L115.586 36.4771L111.797 37.9879L113.165 41.4211L111.828 41.9544L108.717 34.1516ZM117.186 30.7755L122.425 28.687L122.887 29.8463L118.986 31.4015L119.803 33.4525L123.37 32.0306L123.832 33.1899L120.266 34.6118L121.172 36.8858L125.073 35.3305L125.536 36.4898L120.297 38.5783L117.186 30.7755ZM105.65 50.4455L106.988 49.9123L109.254 55.5971L110.822 48.3837L112.115 47.8682L115.226 55.671L113.888 56.2042L111.622 50.5193L110.054 57.7328L108.761 58.2483L105.65 50.4455ZM108.683 48.6553C107.992 48.9308 107.422 48.9813 106.973 48.807C106.532 48.6297 106.196 48.2512 105.965 47.6716L107.191 47.1828C107.328 47.5247 107.487 47.741 107.67 47.8318C107.86 47.9197 108.085 47.9118 108.345 47.8081C108.605 47.7044 108.77 47.5568 108.84 47.3652C108.918 47.1707 108.888 46.9025 108.752 46.5607L109.978 46.0719C110.209 46.6516 110.222 47.1589 110.016 47.5939C109.818 48.026 109.374 48.3797 108.683 48.6553Z" fill="#F5F5F4"/>
<path d="M140.77 31.9957L94.7376 22.3228C92.8974 21.9375 91.7148 20.1305 92.1002 18.2836L93.3624 12.2845C93.7477 10.4442 95.5548 9.26171 97.4017 9.64703L143.434 19.32C145.275 19.7053 146.457 21.5123 146.072 23.3592L144.81 29.3583C144.424 31.1985 142.617 32.3811 140.77 31.9957Z" fill="#14191D"/>
<path d="M158.45 87.5569L119.24 74.3098C114.876 72.8349 112.537 68.1047 114.012 63.74L122.482 38.674C123.957 34.3093 128.688 31.9708 133.052 33.4456L172.262 46.6927C176.627 48.1676 178.965 52.8978 177.491 57.2625L169.02 82.3285C167.545 86.6866 162.808 89.0251 158.45 87.5569Z" fill="#14191D" stroke="#14191D" stroke-miterlimit="10"/>
<path d="M178.375 47.7754L164.098 90.0214" stroke="#F5F5F4" stroke-miterlimit="10"/>
<path d="M172.774 45.8008L158.504 88.0534" stroke="#F5F5F4" stroke-miterlimit="10"/>
<path d="M167.18 43.8359L152.91 86.0886" stroke="#F5F5F4" stroke-miterlimit="10"/>
<path d="M161.585 41.8691L147.309 84.1151" stroke="#F5F5F4" stroke-miterlimit="10"/>
<path d="M155.992 39.8965L141.715 82.1491" stroke="#F5F5F4" stroke-miterlimit="10"/>
<path d="M150.391 37.9297L136.121 80.1823" stroke="#F5F5F4" stroke-miterlimit="10"/>
<path d="M144.798 35.9629L130.527 78.2089" stroke="#F5F5F4" stroke-miterlimit="10"/>
<path d="M139.205 33.9902L124.928 76.2429" stroke="#F5F5F4" stroke-miterlimit="10"/>
<path d="M133.604 32.0234L119.334 74.2761" stroke="#F5F5F4" stroke-miterlimit="10"/>
<path d="M128.01 30.0566L113.74 72.3093" stroke="#F5F5F4" stroke-miterlimit="10"/>
<path d="M124.029 34.0625L179.456 52.7905" stroke="#F5F5F4" stroke-miterlimit="10"/>
<path d="M122.35 39.0391L177.776 57.7604" stroke="#F5F5F4" stroke-miterlimit="10"/>
<path d="M120.67 44.0078L176.097 62.7358" stroke="#F5F5F4" stroke-miterlimit="10"/>
<path d="M118.994 48.9844L174.414 67.7057" stroke="#F5F5F4" stroke-miterlimit="10"/>
<path d="M117.314 53.9531L172.734 72.6745" stroke="#F5F5F4" stroke-miterlimit="10"/>
<path d="M115.633 58.9219L171.059 77.6499" stroke="#F5F5F4" stroke-miterlimit="10"/>
<path d="M113.951 63.8984L169.378 82.6198" stroke="#F5F5F4" stroke-miterlimit="10"/>
<path d="M112.271 68.8672L167.698 87.5886" stroke="#F5F5F4" stroke-miterlimit="10"/>
<path d="M164.047 53.1332L162.367 58.1055L167.988 60.0045L169.668 55.0322L164.047 53.1332Z" fill="#F5F5F4" stroke="#F5F5F4" stroke-miterlimit="10.0004"/>
<path d="M156.737 56.2035L155.057 61.1758L160.677 63.0748L162.357 58.1025L156.737 56.2035Z" fill="#F5F5F4" stroke="#F5F5F4" stroke-miterlimit="10.0004"/>
<path d="M145.51 52.4085L143.83 57.3809L149.451 59.2799L151.131 54.3076L145.51 52.4085Z" fill="#F5F5F4" stroke="#F5F5F4" stroke-miterlimit="10.0004"/>
<path d="M149.44 59.2756L147.902 63.8262L153.523 65.7252L155.06 61.1746L149.44 59.2756Z" fill="#F5F5F4" stroke="#F5F5F4" stroke-miterlimit="10.0004"/>
<path d="M125.284 56.6566L123.604 61.6289L129.224 63.5279L130.904 58.5556L125.284 56.6566Z" fill="#F5F5F4" stroke="#F5F5F4" stroke-miterlimit="10.0004"/>
<path d="M133.174 70.3968L131.494 75.3691L137.115 77.2682L138.795 72.2959L133.174 70.3968Z" fill="#F5F5F4" stroke="#F5F5F4" stroke-miterlimit="10.0004"/>
<path d="M162.948 74.9203L161.268 79.8926L166.888 81.7916L168.568 76.8193L162.948 74.9203Z" fill="#F5F5F4" stroke="#F5F5F4" stroke-miterlimit="10.0004"/>
<path d="M115.028 75.5106L73.9974 80.2076C69.42 80.7324 65.2878 77.4439 64.763 72.8665L61.7601 46.6446C61.2353 42.0673 64.5238 37.935 69.1012 37.4102L110.131 32.7132C114.709 32.1884 118.841 35.4769 119.366 40.0543L122.369 66.2762C122.894 70.8469 119.605 74.9858 115.028 75.5106Z" fill="#F5F5F4" stroke="#14191D" stroke-miterlimit="10"/>
<path d="M122.826 75.478C122.826 75.478 109.519 63.3071 102.045 58.2779C94.5711 53.2488 82.1876 44.0941 81.4103 49.8274C80.633 55.5607 103.088 79.949 105.407 82.6596C107.732 85.3701 108.117 91.5619 108.117 93.1098C108.117 94.6577 105.021 110.914 107.34 117.106" fill="#F5F5F4"/>
<path d="M122.826 75.478C122.826 75.478 109.519 63.3071 102.045 58.2779C94.5711 53.2488 82.1876 44.0941 81.4103 49.8274C80.633 55.5607 103.088 79.949 105.407 82.6596C107.732 85.3701 108.117 91.5619 108.117 93.1098C108.117 94.6577 105.021 110.914 107.34 117.106" stroke="#14191D" stroke-miterlimit="10"/>
<path d="M78.236 45.3825L69.3005 46.4056C68.3107 46.5185 67.4138 45.8077 67.3009 44.8178C67.1879 43.8279 67.8988 42.931 68.8886 42.8181L77.8242 41.795C78.814 41.6821 79.7109 42.3929 79.8238 43.3828C79.9368 44.3727 79.2259 45.2695 78.236 45.3825Z" fill="#14191D" stroke="#14191D" stroke-miterlimit="10"/>
<path d="M94.8982 43.4762L85.9627 44.4993C84.9728 44.6123 84.0759 43.9014 83.963 42.9115C83.85 41.9216 84.5609 41.0248 85.5508 40.9119L94.4863 39.8887C95.4761 39.7758 96.373 40.4867 96.486 41.4765C96.5923 42.4731 95.8814 43.3633 94.8982 43.4762Z" fill="#F5F5F4" stroke="#14191D" stroke-miterlimit="10"/>
<path d="M111.552 41.57L102.617 42.5931C101.627 42.706 100.73 41.9952 100.617 41.0053C100.504 40.0154 101.215 39.1185 102.205 39.0056L111.141 37.9825C112.13 37.8696 113.027 38.5804 113.14 39.5703C113.253 40.5668 112.542 41.457 111.552 41.57Z" fill="#14191D" stroke="#14191D" stroke-miterlimit="10"/>
<path d="M111.985 50.8509L104.292 51.7278C102.957 51.8806 101.754 50.924 101.601 49.5886L101.409 47.9078C101.256 46.5725 102.212 45.37 103.548 45.2172L111.241 44.3402C112.576 44.1874 113.779 45.1441 113.932 46.4795L114.124 48.1603C114.277 49.489 113.314 50.6981 111.985 50.8509Z" fill="#F5F5F4" stroke="#14191D" stroke-miterlimit="10"/>
<path d="M70.4434 52.1718L78.4289 51.3281" stroke="#14191D" stroke-miterlimit="10" stroke-linecap="round"/>
<path d="M74.9805 50.0664L78.4284 51.3287" stroke="#14191D" stroke-miterlimit="10" stroke-linecap="round"/>
<path d="M75.4258 53.4474L78.4287 51.3281" stroke="#14191D" stroke-miterlimit="10" stroke-linecap="round"/>
<path d="M96.8379 18.4687L97.376 17.9837C97.6152 18.3291 97.9208 18.6547 98.4257 18.7543C98.9837 18.8739 99.4554 18.6015 99.5817 18.0036C99.7079 17.4123 99.4089 17.0004 98.8641 16.8875C98.5519 16.8211 98.3526 16.8676 98.0138 17.0004L97.6417 16.635L98.3061 14.2168L100.957 14.7748L100.797 15.5389L98.9239 15.1469L98.5652 16.3228C98.7977 16.263 98.997 16.2497 99.2561 16.3029C100.106 16.4822 100.711 17.1134 100.492 18.1763C100.266 19.2659 99.3026 19.711 98.3858 19.5183C97.582 19.3456 97.1302 18.9138 96.8379 18.4687Z" fill="#F5F5F4"/>
<path d="M103.814 15.2324L107.614 16.0296L106.544 21.1318L105.641 20.9392L106.551 16.601L104.558 16.1825L103.648 20.5207L102.744 20.328L103.814 15.2324Z" fill="#F5F5F4"/>
<path d="M108.916 16.3027L110.524 16.6416C111.654 16.8807 112.411 17.4454 112.165 18.628C111.926 19.764 110.976 20.1028 109.88 19.8769L109.149 19.7241L108.757 21.5976L107.854 21.4049L108.916 16.3027ZM109.953 19.1329C110.717 19.2923 111.142 19.0664 111.268 18.4419C111.401 17.8108 111.049 17.5118 110.292 17.3524L109.667 17.2195L109.295 19L109.953 19.1329Z" fill="#F5F5F4"/>
<path d="M112.656 19.7313C113.001 18.0837 114.124 17.2998 115.453 17.5788C116.781 17.8579 117.499 19.0271 117.153 20.6747C116.808 22.3223 115.672 23.1461 114.343 22.8671C113.014 22.588 112.31 21.3789 112.656 19.7313ZM116.223 20.4821C116.462 19.3394 116.09 18.5355 115.293 18.3694C114.496 18.2033 113.832 18.7813 113.586 19.9306C113.347 21.0733 113.712 21.917 114.509 22.0831C115.306 22.2492 115.984 21.6247 116.223 20.4821Z" fill="#F5F5F4"/>
<path d="M118.716 18.3633L121.785 19.0077L121.626 19.7717L119.46 19.3199L119.188 20.6287L121.021 21.014L120.862 21.778L119.028 21.3927L118.709 22.9008L120.955 23.3725L120.795 24.1365L117.646 23.4721L118.716 18.3633Z" fill="#F5F5F4"/>
<path d="M122.914 19.2461L123.818 19.4388L123.379 21.5182L124.622 21.7773L125.877 25.1987L124.914 24.9994L123.937 22.4018L123.22 22.2489L122.741 24.541L121.838 24.3483L122.914 19.2461ZM123.97 21.8105L125.047 20.5748C125.605 19.9304 125.97 19.7909 126.495 19.9038C126.615 19.9304 126.747 19.9702 126.834 20.0367L126.508 20.8339C126.442 20.794 126.355 20.7675 126.309 20.7608C126.083 20.7143 125.924 20.7808 125.578 21.186L124.721 22.1626L123.97 21.8105Z" fill="#F5F5F4"/>
<path d="M128.467 21.2051L126.992 20.8929L127.152 20.1289L130.998 20.9394L130.839 21.6968L129.364 21.3912L128.454 25.7294L127.55 25.5367L128.467 21.2051Z" fill="#F5F5F4"/>
<path d="M131.058 23.5985C131.403 21.9509 132.526 21.167 133.855 21.446C135.184 21.725 135.901 22.8943 135.556 24.5419C135.21 26.1895 134.074 27.0133 132.745 26.7342C131.417 26.4552 130.713 25.2461 131.058 23.5985ZM134.626 24.3492C134.865 23.2065 134.493 22.4027 133.689 22.2366C132.885 22.0705 132.227 22.6485 131.981 23.7978C131.742 24.9405 132.108 25.7842 132.905 25.9503C133.715 26.1164 134.386 25.4919 134.626 24.3492Z" fill="#F5F5F4"/>
<path d="M137.116 22.2285L138.751 22.574C139.8 22.7932 140.505 23.2782 140.305 24.2149C140.206 24.6933 139.847 25.1052 139.362 25.1716L139.355 25.2048C139.893 25.4506 140.226 25.929 140.079 26.6199C139.867 27.643 138.93 27.9419 137.807 27.7028L136.047 27.3307L137.116 22.2285ZM137.861 26.972C138.611 27.1314 139.083 26.9454 139.203 26.3741C139.315 25.8359 138.957 25.5171 138.199 25.3576L137.435 25.1982L137.097 26.8125L137.861 26.972ZM138.226 24.66C138.937 24.8062 139.296 24.5936 139.389 24.1551C139.495 23.6635 139.196 23.4044 138.538 23.2649L137.874 23.1254L137.582 24.5272L138.226 24.66Z" fill="#F5F5F4"/>
<path d="M107.467 116.449L155.067 101.415L148.882 86.553L122.82 76.8535L110.211 89.5692L107.467 116.449Z" fill="#F5F5F4"/>
</svg>
